G04 #@! TF.GenerationSoftware,KiCad,Pcbnew,(5.1.2)-2*
G04 #@! TF.CreationDate,2019-11-25T21:46:29-03:00*
G04 #@! TF.ProjectId,Shield_Galileo,53686965-6c64-45f4-9761-6c696c656f2e,rev?*
G04 #@! TF.SameCoordinates,Original*
G04 #@! TF.FileFunction,Copper,L2,Bot*
G04 #@! TF.FilePolarity,Positive*
%FSLAX46Y46*%
G04 Gerber Fmt 4.6, Leading zero omitted, Abs format (unit mm)*
G04 Created by KiCad (PCBNEW (5.1.2)-2) date 2019-11-25 21:46:29*
%MOMM*%
%LPD*%
G04 APERTURE LIST*
%ADD10O,2.200000X2.200000*%
%ADD11R,2.200000X2.200000*%
%ADD12O,1.600000X1.600000*%
%ADD13R,1.600000X1.600000*%
%ADD14C,1.600000*%
%ADD15O,3.960000X1.980000*%
%ADD16R,3.960000X1.980000*%
%ADD17R,1.980000X3.960000*%
%ADD18O,1.980000X3.960000*%
%ADD19C,1.400000*%
%ADD20O,1.400000X1.400000*%
%ADD21C,1.500000*%
%ADD22R,1.620000X1.620000*%
%ADD23C,1.620000*%
%ADD24R,1.700000X1.700000*%
%ADD25O,1.700000X1.700000*%
%ADD26C,2.000000*%
%ADD27R,1.800000X1.800000*%
%ADD28C,1.800000*%
%ADD29C,1.000000*%
%ADD30C,0.500000*%
G04 APERTURE END LIST*
D10*
X128016000Y-133604000D03*
D11*
X128016000Y-123444000D03*
D12*
X148844000Y-127508000D03*
X146304000Y-127508000D03*
X185924000Y-127508000D03*
X146304000Y-79248000D03*
X183384000Y-127508000D03*
X148844000Y-79248000D03*
X180844000Y-127508000D03*
X151384000Y-79248000D03*
X178304000Y-127508000D03*
X153924000Y-79248000D03*
X175764000Y-127508000D03*
X156464000Y-79248000D03*
X173224000Y-127508000D03*
X159004000Y-79248000D03*
X170684000Y-127508000D03*
X164084000Y-79248000D03*
X168144000Y-127508000D03*
X166624000Y-79248000D03*
X164084000Y-127508000D03*
X169164000Y-79248000D03*
X161544000Y-127508000D03*
X171704000Y-79248000D03*
X159004000Y-127508000D03*
X174244000Y-79248000D03*
X156464000Y-127508000D03*
X176784000Y-79248000D03*
X153924000Y-127508000D03*
X179324000Y-79248000D03*
X151384000Y-127508000D03*
D13*
X181864000Y-79248000D03*
D12*
X188464000Y-127508000D03*
X191004000Y-127508000D03*
D11*
X120904000Y-133604000D03*
D10*
X120904000Y-123444000D03*
D14*
X173736000Y-105116000D03*
X173736000Y-102616000D03*
X169164000Y-92964000D03*
X169164000Y-90464000D03*
D11*
X135128000Y-123444000D03*
D10*
X135128000Y-133604000D03*
X114300000Y-123444000D03*
D11*
X114300000Y-133604000D03*
D15*
X74676000Y-111680000D03*
D16*
X74676000Y-106680000D03*
D17*
X99568000Y-124968000D03*
D18*
X104568000Y-124968000D03*
D19*
X178816000Y-106680000D03*
D20*
X183896000Y-106680000D03*
D12*
X161544000Y-101600000D03*
X146304000Y-93980000D03*
X159004000Y-101600000D03*
X148844000Y-93980000D03*
X156464000Y-101600000D03*
X151384000Y-93980000D03*
X153924000Y-101600000D03*
X153924000Y-93980000D03*
X151384000Y-101600000D03*
X156464000Y-93980000D03*
X148844000Y-101600000D03*
X159004000Y-93980000D03*
X146304000Y-101600000D03*
D13*
X161544000Y-93980000D03*
D21*
X179324000Y-98044000D03*
X183124000Y-98044000D03*
D22*
X72136000Y-89408000D03*
D23*
X73406000Y-84328000D03*
X74676000Y-89408000D03*
X75946000Y-84328000D03*
X77216000Y-89408000D03*
X78486000Y-84328000D03*
X79756000Y-89408000D03*
X81026000Y-84328000D03*
X82296000Y-89408000D03*
X83566000Y-84328000D03*
X84836000Y-89408000D03*
X86106000Y-84328000D03*
X87376000Y-89408000D03*
X88646000Y-84328000D03*
X89916000Y-89408000D03*
D24*
X169164000Y-85344000D03*
D25*
X171704000Y-85344000D03*
X174244000Y-85344000D03*
D24*
X146304000Y-110744000D03*
D25*
X148844000Y-110744000D03*
X151384000Y-110744000D03*
X153924000Y-110744000D03*
X156464000Y-110744000D03*
D12*
X120904000Y-89916000D03*
X105664000Y-82296000D03*
X118364000Y-89916000D03*
X108204000Y-82296000D03*
X115824000Y-89916000D03*
X110744000Y-82296000D03*
X113284000Y-89916000D03*
X113284000Y-82296000D03*
X110744000Y-89916000D03*
X115824000Y-82296000D03*
X108204000Y-89916000D03*
X118364000Y-82296000D03*
X105664000Y-89916000D03*
D13*
X120904000Y-82296000D03*
D26*
X131064000Y-105276000D03*
X131064000Y-112776000D03*
X120904000Y-112776000D03*
X120904000Y-105276000D03*
D27*
X129032000Y-93980000D03*
D28*
X126492000Y-93980000D03*
D19*
X134620000Y-93980000D03*
D20*
X139700000Y-93980000D03*
D29*
X159004000Y-129540000D02*
X157988000Y-130556000D01*
X159004000Y-127508000D02*
X159004000Y-129540000D01*
X142748000Y-110744000D02*
X146304000Y-110744000D01*
X156464000Y-93980000D02*
X156464000Y-95504000D01*
X139700000Y-107696000D02*
X142748000Y-110744000D01*
X159004000Y-127508000D02*
X161544000Y-127508000D01*
X159004000Y-119380000D02*
X161544000Y-116840000D01*
X159004000Y-127508000D02*
X159004000Y-119380000D01*
X161544000Y-116840000D02*
X161544000Y-106680000D01*
X161544000Y-106680000D02*
X163576000Y-104648000D01*
X163576000Y-104648000D02*
X165608000Y-104648000D01*
X165608000Y-104648000D02*
X167640000Y-102616000D01*
X167092000Y-88392000D02*
X169164000Y-90464000D01*
X159512000Y-88392000D02*
X167092000Y-88392000D01*
X156464000Y-93980000D02*
X156464000Y-91440000D01*
X156464000Y-91440000D02*
X159512000Y-88392000D01*
X169164000Y-90464000D02*
X171664000Y-90464000D01*
X171664000Y-90464000D02*
X171704000Y-90424000D01*
X171704000Y-90424000D02*
X172212000Y-90424000D01*
X174244000Y-88392000D02*
X174244000Y-85344000D01*
X172212000Y-90424000D02*
X174244000Y-88392000D01*
X134898213Y-107696000D02*
X139700000Y-107696000D01*
X132478213Y-105276000D02*
X134898213Y-107696000D01*
X131064000Y-105276000D02*
X132478213Y-105276000D01*
X129649787Y-105276000D02*
X120904000Y-105276000D01*
X131064000Y-105276000D02*
X129649787Y-105276000D01*
X128016000Y-133604000D02*
X135128000Y-133604000D01*
X157988000Y-130556000D02*
X145288000Y-130556000D01*
X142748000Y-115824000D02*
X142748000Y-110744000D01*
X142748000Y-126492000D02*
X142748000Y-115824000D01*
X141986000Y-127254000D02*
X145288000Y-130556000D01*
X141986000Y-127254000D02*
X142748000Y-126492000D01*
X128016000Y-136144000D02*
X128016000Y-133604000D01*
X88392000Y-135128000D02*
X92456000Y-139192000D01*
X92456000Y-139192000D02*
X124968000Y-139192000D01*
X124968000Y-139192000D02*
X128016000Y-136144000D01*
X89916000Y-89408000D02*
X91440000Y-90932000D01*
X91440000Y-90932000D02*
X97028000Y-90932000D01*
X139700000Y-94969949D02*
X142774051Y-98044000D01*
X139700000Y-93980000D02*
X139700000Y-94969949D01*
X153924000Y-98044000D02*
X156464000Y-95504000D01*
X142774051Y-98044000D02*
X153924000Y-98044000D01*
X167640000Y-102616000D02*
X170180000Y-105156000D01*
X170220000Y-105116000D02*
X173736000Y-105116000D01*
X170180000Y-105156000D02*
X170220000Y-105116000D01*
X167640000Y-101600000D02*
X167640000Y-102616000D01*
X164084000Y-98044000D02*
X167640000Y-101600000D01*
X156464000Y-95504000D02*
X159004000Y-98044000D01*
X159004000Y-98044000D02*
X164084000Y-98044000D01*
X88392000Y-122428000D02*
X88392000Y-135128000D01*
X88392000Y-108712000D02*
X88392000Y-122428000D01*
X145288000Y-136652000D02*
X145288000Y-130556000D01*
X142748000Y-139192000D02*
X145288000Y-136652000D01*
X137668000Y-139192000D02*
X142748000Y-139192000D01*
X135128000Y-133604000D02*
X135128000Y-136652000D01*
X135128000Y-136652000D02*
X137668000Y-139192000D01*
D30*
X104140000Y-83820000D02*
X104648000Y-83820000D01*
D29*
X104140000Y-83820000D02*
X105664000Y-82296000D01*
X97028000Y-90932000D02*
X104140000Y-83820000D01*
X86360000Y-106680000D02*
X88392000Y-108712000D01*
X81026000Y-84328000D02*
X81026000Y-82042000D01*
X81026000Y-82042000D02*
X78232000Y-79248000D01*
X78232000Y-79248000D02*
X69088000Y-79248000D01*
X69088000Y-79248000D02*
X64516000Y-83820000D01*
X64516000Y-83820000D02*
X64516000Y-97536000D01*
X64516000Y-97536000D02*
X68580000Y-101600000D01*
X68580000Y-101600000D02*
X68580000Y-111252000D01*
X68580000Y-111252000D02*
X71628000Y-114300000D01*
X71628000Y-114300000D02*
X77724000Y-114300000D01*
X77724000Y-114300000D02*
X80264000Y-111760000D01*
X80264000Y-111760000D02*
X80264000Y-106680000D01*
X74676000Y-106680000D02*
X80264000Y-106680000D01*
X80264000Y-106680000D02*
X86360000Y-106680000D01*
X170688000Y-99568000D02*
X173736000Y-102616000D01*
X161544000Y-93980000D02*
X165100000Y-93980000D01*
X165100000Y-93980000D02*
X170688000Y-99568000D01*
X178263340Y-98044000D02*
X179324000Y-98044000D01*
X177800000Y-98507340D02*
X178263340Y-98044000D01*
X177800000Y-98552000D02*
X177800000Y-98507340D01*
X176022000Y-100330000D02*
X178816000Y-103124000D01*
X176022000Y-100330000D02*
X177800000Y-98552000D01*
X173736000Y-102616000D02*
X176022000Y-100330000D01*
X178816000Y-103124000D02*
X178816000Y-106680000D01*
X167132000Y-92964000D02*
X169164000Y-92964000D01*
X165100000Y-90932000D02*
X167132000Y-92964000D01*
X160528000Y-90932000D02*
X165100000Y-90932000D01*
X159004000Y-93980000D02*
X159004000Y-92456000D01*
X159004000Y-92456000D02*
X160528000Y-90932000D01*
X169164000Y-92964000D02*
X172212000Y-92964000D01*
X172212000Y-92964000D02*
X181356000Y-92964000D01*
X183124000Y-94732000D02*
X181356000Y-92964000D01*
X183124000Y-98044000D02*
X183124000Y-94732000D01*
X183124000Y-98044000D02*
X183124000Y-99812000D01*
X183896000Y-100584000D02*
X183896000Y-106680000D01*
X183124000Y-99812000D02*
X183896000Y-100584000D01*
X159004000Y-101600000D02*
X161544000Y-101600000D01*
X159004000Y-103124000D02*
X159004000Y-101600000D01*
X159004000Y-113284000D02*
X159004000Y-103124000D01*
X157480000Y-114808000D02*
X159004000Y-113284000D01*
X150876000Y-114808000D02*
X157480000Y-114808000D01*
X148844000Y-112776000D02*
X150876000Y-114808000D01*
X156464000Y-127508000D02*
X156464000Y-118364000D01*
X157480000Y-117348000D02*
X157480000Y-114808000D01*
X156464000Y-118364000D02*
X157480000Y-117348000D01*
X127508000Y-109220000D02*
X131064000Y-112776000D01*
X117856000Y-109220000D02*
X127508000Y-109220000D01*
X115824000Y-107188000D02*
X117856000Y-109220000D01*
X118364000Y-100584000D02*
X115824000Y-103124000D01*
X115824000Y-103124000D02*
X115824000Y-107188000D01*
X148844000Y-108712000D02*
X146304000Y-106172000D01*
X148844000Y-110744000D02*
X148844000Y-108712000D01*
X146304000Y-106172000D02*
X143256000Y-106172000D01*
X143256000Y-106172000D02*
X140716000Y-103632000D01*
X140716000Y-103632000D02*
X136652000Y-103632000D01*
X136652000Y-103632000D02*
X133604000Y-100584000D01*
X114808000Y-103124000D02*
X115824000Y-103124000D01*
X108204000Y-96520000D02*
X114808000Y-103124000D01*
X86360000Y-96520000D02*
X108204000Y-96520000D01*
X82296000Y-89408000D02*
X82296000Y-92456000D01*
X82296000Y-92456000D02*
X86360000Y-96520000D01*
X120904000Y-100584000D02*
X120904000Y-89916000D01*
X120904000Y-100584000D02*
X118364000Y-100584000D01*
X133604000Y-100584000D02*
X120904000Y-100584000D01*
X121703999Y-89116001D02*
X125259999Y-89116001D01*
X120904000Y-89916000D02*
X121703999Y-89116001D01*
X125259999Y-89116001D02*
X126492000Y-90348002D01*
X126492000Y-90348002D02*
X126492000Y-93980000D01*
X148844000Y-112776000D02*
X148844000Y-110744000D01*
X136144000Y-130048000D02*
X138684000Y-127508000D01*
X138684000Y-127508000D02*
X138684000Y-118872000D01*
X138684000Y-118872000D02*
X135128000Y-115316000D01*
X135128000Y-115316000D02*
X123444000Y-115316000D01*
X123444000Y-115316000D02*
X120904000Y-112776000D01*
X75946000Y-84328000D02*
X75946000Y-83182488D01*
X75946000Y-83182488D02*
X75946000Y-82550000D01*
X75946000Y-82550000D02*
X75184000Y-81788000D01*
X75184000Y-81788000D02*
X70104000Y-81788000D01*
X70104000Y-81788000D02*
X67056000Y-84836000D01*
X67056000Y-84836000D02*
X67056000Y-97028000D01*
X67056000Y-97028000D02*
X71628000Y-101600000D01*
X71696000Y-111680000D02*
X70612000Y-110596000D01*
X74676000Y-111680000D02*
X71696000Y-111680000D01*
X70612000Y-102616000D02*
X71628000Y-101600000D01*
X70612000Y-110596000D02*
X70612000Y-102616000D01*
X124968000Y-134112000D02*
X124968000Y-130048000D01*
X122428000Y-136652000D02*
X124968000Y-134112000D01*
X99060000Y-136652000D02*
X122428000Y-136652000D01*
X92456000Y-130048000D02*
X99060000Y-136652000D01*
X92456000Y-106680000D02*
X92456000Y-130048000D01*
X71628000Y-101600000D02*
X74676000Y-101600000D01*
X124968000Y-130048000D02*
X136144000Y-130048000D01*
X74676000Y-101600000D02*
X76708000Y-103632000D01*
X76708000Y-103632000D02*
X89408000Y-103632000D01*
X89408000Y-103632000D02*
X92456000Y-106680000D01*
D30*
X87376000Y-88392000D02*
X87376000Y-89408000D01*
X86360000Y-87376000D02*
X87376000Y-88392000D01*
X76200000Y-87376000D02*
X86360000Y-87376000D01*
X74676000Y-89408000D02*
X74676000Y-88900000D01*
X74676000Y-88900000D02*
X76200000Y-87376000D01*
D29*
X104568000Y-117776000D02*
X132000000Y-117776000D01*
X104568000Y-117776000D02*
X104568000Y-124968000D01*
X135128000Y-120904000D02*
X135128000Y-123444000D01*
X132000000Y-117776000D02*
X135128000Y-120904000D01*
X104140000Y-117348000D02*
X104568000Y-117776000D01*
X104140000Y-102108000D02*
X104140000Y-117348000D01*
X101092000Y-99060000D02*
X104140000Y-102108000D01*
X80772000Y-99060000D02*
X101092000Y-99060000D01*
X74676000Y-89408000D02*
X74676000Y-92964000D01*
X74676000Y-92964000D02*
X80772000Y-99060000D01*
X135128000Y-125544000D02*
X135128000Y-123444000D01*
X134180000Y-126492000D02*
X135128000Y-125544000D01*
X120904000Y-123444000D02*
X123952000Y-126492000D01*
X123952000Y-126492000D02*
X134180000Y-126492000D01*
D30*
X74930000Y-85852000D02*
X73406000Y-84328000D01*
X88646000Y-84328000D02*
X88646000Y-85090000D01*
X88646000Y-85090000D02*
X87884000Y-85852000D01*
D29*
X116264000Y-121480000D02*
X114300000Y-123444000D01*
X123952000Y-121480000D02*
X116264000Y-121480000D01*
X128016000Y-123444000D02*
X125916000Y-123444000D01*
X125916000Y-123444000D02*
X123952000Y-121480000D01*
X111760000Y-123444000D02*
X114300000Y-123444000D01*
X105156000Y-130048000D02*
X111760000Y-123444000D01*
X101668000Y-130048000D02*
X105156000Y-130048000D01*
X99568000Y-124968000D02*
X99568000Y-127948000D01*
X99568000Y-127948000D02*
X101668000Y-130048000D01*
D30*
X74930000Y-85852000D02*
X87884000Y-85852000D01*
D29*
X71120000Y-84328000D02*
X73406000Y-84328000D01*
X99568000Y-104648000D02*
X96012000Y-101092000D01*
X99568000Y-124968000D02*
X99568000Y-104648000D01*
X96012000Y-101092000D02*
X78232000Y-101092000D01*
X78232000Y-101092000D02*
X69596000Y-92456000D01*
X69596000Y-92456000D02*
X69596000Y-85852000D01*
X69596000Y-85852000D02*
X71120000Y-84328000D01*
X156464000Y-101600000D02*
X156464000Y-110744000D01*
X153924000Y-101600000D02*
X153924000Y-110744000D01*
X146304000Y-88900000D02*
X146304000Y-93980000D01*
X144272000Y-86868000D02*
X145288000Y-86868000D01*
X151384000Y-76708000D02*
X149352000Y-74676000D01*
X151384000Y-79248000D02*
X151384000Y-76708000D01*
X146304000Y-87884000D02*
X146304000Y-88900000D01*
X149352000Y-74676000D02*
X144272000Y-74676000D01*
X144272000Y-74676000D02*
X141732000Y-77216000D01*
X145288000Y-86868000D02*
X146304000Y-87884000D01*
X141732000Y-77216000D02*
X141732000Y-84328000D01*
X141732000Y-84328000D02*
X144272000Y-86868000D01*
X147828000Y-76708000D02*
X148844000Y-77724000D01*
X145288000Y-76708000D02*
X147828000Y-76708000D01*
X148844000Y-85852000D02*
X147828000Y-84836000D01*
X148844000Y-93980000D02*
X148844000Y-85852000D01*
X147828000Y-84836000D02*
X145288000Y-84836000D01*
X148844000Y-77724000D02*
X148844000Y-79248000D01*
X145288000Y-84836000D02*
X143764000Y-83312000D01*
X143764000Y-83312000D02*
X143764000Y-78232000D01*
X143764000Y-78232000D02*
X145288000Y-76708000D01*
X146304000Y-82296000D02*
X146304000Y-79248000D01*
X146812000Y-82804000D02*
X146304000Y-82296000D01*
X149860000Y-82804000D02*
X146812000Y-82804000D01*
X151384000Y-93980000D02*
X151384000Y-84328000D01*
X151384000Y-84328000D02*
X149860000Y-82804000D01*
X153924000Y-93980000D02*
X153924000Y-88900000D01*
X153924000Y-88900000D02*
X153924000Y-79248000D01*
X174244000Y-77216000D02*
X174244000Y-79248000D01*
X172720000Y-75692000D02*
X174244000Y-77216000D01*
X124968000Y-82296000D02*
X131572000Y-75692000D01*
X120904000Y-82296000D02*
X124968000Y-82296000D01*
X162052000Y-75692000D02*
X172720000Y-75692000D01*
X137160000Y-75692000D02*
X142240000Y-70612000D01*
X131572000Y-75692000D02*
X137160000Y-75692000D01*
X142240000Y-70612000D02*
X156972000Y-70612000D01*
X156972000Y-70612000D02*
X162052000Y-75692000D01*
X171704000Y-79248000D02*
X171704000Y-85344000D01*
X169164000Y-79248000D02*
X169164000Y-85344000D01*
X162560000Y-79248000D02*
X164084000Y-79248000D01*
X143256000Y-72644000D02*
X155956000Y-72644000D01*
X137668000Y-78232000D02*
X143256000Y-72644000D01*
X132588000Y-78232000D02*
X137668000Y-78232000D01*
X84836000Y-91948000D02*
X87376000Y-94488000D01*
X84836000Y-89408000D02*
X84836000Y-91948000D01*
X155956000Y-72644000D02*
X162560000Y-79248000D01*
X87376000Y-94488000D02*
X96520000Y-94488000D01*
X96520000Y-94488000D02*
X104648000Y-86360000D01*
X104648000Y-86360000D02*
X124460000Y-86360000D01*
X124460000Y-86360000D02*
X132588000Y-78232000D01*
D30*
X108204000Y-81164630D02*
X108204000Y-82296000D01*
X107811370Y-80772000D02*
X108204000Y-81164630D01*
X87376000Y-80772000D02*
X107811370Y-80772000D01*
X86106000Y-84328000D02*
X86106000Y-82042000D01*
X86106000Y-82042000D02*
X87376000Y-80772000D01*
X110744000Y-81280000D02*
X110744000Y-82296000D01*
X83566000Y-81026000D02*
X85344000Y-79248000D01*
X83566000Y-84328000D02*
X83566000Y-81026000D01*
X118364000Y-81164630D02*
X118364000Y-82296000D01*
X116955370Y-79756000D02*
X118364000Y-81164630D01*
X110744000Y-81280000D02*
X112268000Y-79756000D01*
X112268000Y-79756000D02*
X116955370Y-79756000D01*
X85344000Y-79248000D02*
X108712000Y-79248000D01*
X108712000Y-79248000D02*
X110744000Y-81280000D01*
D29*
X114300000Y-133604000D02*
X120396000Y-133604000D01*
X129032000Y-93980000D02*
X134620000Y-93980000D01*
M02*
