M48
; DRILL file {KiCad (5.1.2)-2} date 11/25/19 21:46:34
; FORMAT={-:-/ absolute / metric / decimal}
; #@! TF.CreationDate,2019-11-25T21:46:34-03:00
; #@! TF.GenerationSoftware,Kicad,Pcbnew,(5.1.2)-2
FMAT,2
METRIC
T1C0.700
T2C0.800
T3C0.900
T4C1.000
T5C1.080
T6C1.100
T7C1.320
%
G90
G05
T1
X178.816Y-106.68
X183.896Y-106.68
X134.62Y-93.98
X139.7Y-93.98
T2
X169.164Y-90.464
X169.164Y-92.964
X105.664Y-82.296
X105.664Y-89.916
X108.204Y-82.296
X108.204Y-89.916
X110.744Y-82.296
X110.744Y-89.916
X113.284Y-82.296
X113.284Y-89.916
X115.824Y-82.296
X115.824Y-89.916
X118.364Y-82.296
X118.364Y-89.916
X120.904Y-82.296
X120.904Y-89.916
X146.304Y-93.98
X146.304Y-101.6
X148.844Y-93.98
X148.844Y-101.6
X151.384Y-93.98
X151.384Y-101.6
X153.924Y-93.98
X153.924Y-101.6
X156.464Y-93.98
X156.464Y-101.6
X159.004Y-93.98
X159.004Y-101.6
X161.544Y-93.98
X161.544Y-101.6
X146.304Y-79.248
X146.304Y-127.508
X148.844Y-79.248
X148.844Y-127.508
X151.384Y-79.248
X151.384Y-127.508
X153.924Y-79.248
X153.924Y-127.508
X156.464Y-79.248
X156.464Y-127.508
X159.004Y-79.248
X159.004Y-127.508
X161.544Y-127.508
X164.084Y-79.248
X164.084Y-127.508
X166.624Y-79.248
X168.144Y-127.508
X169.164Y-79.248
X170.684Y-127.508
X171.704Y-79.248
X173.224Y-127.508
X174.244Y-79.248
X175.764Y-127.508
X176.784Y-79.248
X178.304Y-127.508
X179.324Y-79.248
X180.844Y-127.508
X181.864Y-79.248
X183.384Y-127.508
X185.924Y-127.508
X188.464Y-127.508
X191.004Y-127.508
X173.736Y-102.616
X173.736Y-105.116
X179.324Y-98.044
X183.124Y-98.044
T3
X126.492Y-93.98
X129.032Y-93.98
T4
X120.904Y-105.276
X120.904Y-112.776
X146.304Y-110.744
X148.844Y-110.744
X151.384Y-110.744
X153.924Y-110.744
X156.464Y-110.744
X169.164Y-85.344
X171.704Y-85.344
X174.244Y-85.344
X131.064Y-105.276
X131.064Y-112.776
T5
X72.136Y-89.408
X73.406Y-84.328
X74.676Y-89.408
X75.946Y-84.328
X77.216Y-89.408
X78.486Y-84.328
X79.756Y-89.408
X81.026Y-84.328
X82.296Y-89.408
X83.566Y-84.328
X84.836Y-89.408
X86.106Y-84.328
X87.376Y-89.408
X88.646Y-84.328
X89.916Y-89.408
T6
X120.904Y-123.444
X120.904Y-133.604
X114.3Y-123.444
X114.3Y-133.604
X128.016Y-123.444
X128.016Y-133.604
X135.128Y-123.444
X135.128Y-133.604
T7
X99.568Y-124.968
X104.568Y-124.968
X74.676Y-106.68
X74.676Y-111.68
T0
M30
